<svg id="icons" enable-background="new 0 0 64 64" height="512" viewBox="0 0 64 64" width="512" xmlns="http://www.w3.org/2000/svg"><g><g><path d="m36.01 22v1c0 1.1-.899 2-2 2h-4c-1.1 0-2-.9-2-2v-1z" fill="#aab2bd"/></g><g><path d="m51 32v3h-42l-6-3 6-3h42z" fill="#ed5565"/></g><g><path d="m36.01 15v7h-8v-2-3-2z" fill="#656d78"/></g><g><path d="m7 17h21.01v3h-21.01z" fill="#965353"/></g><g><path d="m34.01 12c1.101 0 2 .9 2 2v1h-8v-1c0-1.1.9-2 2-2z" fill="#aab2bd"/></g><g><path d="m52.99 35v3h-51.99v-3h8 42z" fill="#aab2bd"/></g><g><path d="m1 38h51.99v14h-51.99z" fill="#656d78"/></g></g><g><g><path d="m52.99 53c-.553 0-1-.447-1-1v-16h-49.99v16c0 .553-.447 1-1 1s-1-.447-1-1v-17c0-.553.447-1 1-1h51.99c.553 0 1 .447 1 1v17c0 .553-.447 1-1 1z"/></g><g><path d="m52.99 38.998h-51.99c-.553 0-1-.447-1-1s.447-1 1-1h51.99c.553 0 1 .447 1 1s-.447 1-1 1z"/></g><g><path d="m8.999 36c-.15 0-.303-.034-.446-.105l-5.998-3c-.494-.247-.694-.848-.447-1.342.248-.494.849-.692 1.342-.447l5.998 3c.494.247.694.848.447 1.342-.176.35-.529.552-.896.552z"/></g><g><path d="m3.003 33c-.367 0-.721-.202-.896-.553-.247-.494-.047-1.095.447-1.342l6-2.998c.494-.245 1.096-.047 1.342.447.247.494.047 1.095-.447 1.342l-6 2.998c-.143.072-.296.106-.446.106z"/></g><g><path d="m51 30.002h-41.998c-.553 0-1-.447-1-1s.447-1 1-1h41.998c.553 0 1 .447 1 1s-.447 1-1 1z"/></g><g><path d="m51 36c-.553 0-1-.447-1-1v-5.998c0-.553.447-1 1-1s1 .447 1 1v5.998c0 .553-.447 1-1 1z"/></g><g><path d="m63 32.998h-12c-.553 0-1-.447-1-1s.447-1 1-1h12c.553 0 1 .447 1 1s-.447 1-1 1z"/></g><g><path d="m51 32.998h-28.998c-.553 0-1-.447-1-1s.447-1 1-1h28.998c.553 0 1 .447 1 1s-.447 1-1 1z"/></g><g><path d="m40 26c-.256 0-.512-.098-.707-.293-.391-.391-.391-1.023 0-1.414l4-4c.391-.391 1.023-.391 1.414 0s.391 1.023 0 1.414l-4 4c-.195.195-.451.293-.707.293z"/></g><g><path d="m40 21c-.256 0-.512-.098-.707-.293-.391-.391-.391-1.023 0-1.414l2.922-2.922c.391-.391 1.023-.391 1.414 0s.391 1.023 0 1.414l-2.922 2.922c-.195.195-.451.293-.707.293z"/></g><g><g><path d="m34.008 26.002h-4.002c-1.654 0-3-1.346-3-3v-9.002c0-1.654 1.346-3 3-3h4.002c1.654 0 3 1.346 3 3v9.002c0 1.654-1.346 3-3 3zm-4.002-13.002c-.552 0-1 .448-1 1v9.002c0 .552.448 1 1 1h4.002c.552 0 1-.448 1-1v-9.002c0-.552-.448-1-1-1z"/></g><g><path d="m28.006 21.002h-21.006c-.553 0-1-.447-1-1v-3c0-.553.447-1 1-1h21.006c.553 0 1 .447 1 1v3c0 .553-.447 1-1 1zm-20.006-2h19.006v-1h-19.006z"/></g><g><path d="m36.008 23.002h-8.002c-.553 0-1-.447-1-1s.447-1 1-1h8.002c.553 0 1 .447 1 1s-.447 1-1 1z"/></g><g><path d="m36.008 16.002h-8.002c-.553 0-1-.447-1-1s.447-1 1-1h8.002c.553 0 1 .447 1 1s-.447 1-1 1z"/></g></g></g></svg>